<?xml version="1.0" encoding="utf-8"?>
<!-- Generator: Adobe Illustrator 28.0.0, SVG Export Plug-In . SVG Version: 6.00 Build 0)  -->
<svg version="1.1" id="图层_1" xmlns="http://www.w3.org/2000/svg" xmlns:xlink="http://www.w3.org/1999/xlink" x="0px" y="0px"
	 viewBox="0 0 16 16" style="enable-background:new 0 0 16 16;" xml:space="preserve">
<style type="text/css">
	.st0{fill:#0057FF;}
</style>
<g>
	<path class="st0" d="M7.44,4.74C6.96,4.88,6.49,5.09,6.05,5.35c-0.11,0.07-0.2,0.13-0.31,0.2c-0.39,0.27-0.73,0.6-1.01,0.99
		c-0.07,0.1-0.13,0.21-0.18,0.32c0,0,0,0,0,0.01C4.13,7.64,4.41,8.6,5.18,9.02c0.51,0.29,1.07,0.46,1.66,0.5l1.02-2.23
		c0.03-0.06,0.04-0.1,0.07-0.16C7.95,7.07,7.97,7.04,8,6.97C8.16,6.6,8.42,6.08,8.58,5.71L9.08,4.6c0.03-0.05,0.05-0.1,0.07-0.16
		c-0.16,0-0.32,0.01-0.48,0.04C8.26,4.52,7.84,4.61,7.44,4.74z"/>
	<path class="st0" d="M8,0C3.6,0,0.03,3.55,0,7.95c-0.03,4.42,3.53,8.02,7.95,8.05c4.42,0.03,8.02-3.53,8.05-7.95
		C16.01,3.62,12.43,0.02,8,0z M12.14,8.45l-0.27,0.37l-0.41,0.42c-0.34,0.3-0.72,0.55-1.12,0.75c-0.84,0.42-1.76,0.63-2.7,0.62
		c0.02-0.1,0.05-0.19,0.09-0.29l0.6-0.1c0.19-0.04,0.38-0.08,0.56-0.13c0.26-0.08,0.51-0.17,0.75-0.28C9.71,9.8,9.79,9.76,9.87,9.72
		c0.37-0.18,0.72-0.42,1.04-0.69c0.06-0.06,0.11-0.11,0.17-0.17c0.06-0.06,0.11-0.12,0.16-0.18c0.59-0.72,0.76-1.6-0.04-2.24
		c-0.24-0.18-0.5-0.32-0.78-0.42c-0.17-0.07-0.35-0.12-0.52-0.16L9.27,5.73l0.02-0.05L9.17,5.99C9.15,6.03,9.14,6.06,9.12,6.1
		L7.76,9.52c0.11,0,0.22-0.02,0.34-0.03l0.61-0.11C8.82,9.34,8.89,9.32,8.99,9.3c0.36-0.11,0.71-0.24,1.06-0.38
		C9.95,9,9.84,9.07,9.72,9.12C9.48,9.25,9.23,9.36,8.97,9.46c-0.34,0.13-0.7,0.23-1.05,0.3C7.69,9.81,7.65,9.77,7.61,9.87
		l-0.26,0.67c-0.1,0.27-0.2,0.52-0.31,0.78c-0.05,0.13-0.1,0.26-0.15,0.39l-0.3,0.78C6.42,12.93,6.36,13,6.7,13.17l0.37,0.16v0.04
		c-0.27,0.04-0.54,0.04-0.81,0c-0.08-0.01-0.16-0.02-0.24-0.04c-0.28-0.05-0.54-0.2-0.73-0.41c0.05-0.13,0.1-0.27,0.17-0.39
		c0.03-0.07,0.05-0.12,0.09-0.19l0.61-1.32c0.13-0.3,0.31-0.67,0.43-0.94c0.04-0.06,0.06-0.12,0.08-0.19c-0.55,0-1.1-0.1-1.61-0.3
		C4.38,9.34,3.85,8.83,3.59,8.16C3.36,7.28,3.62,6.34,4.27,5.7C4.49,5.44,4.73,5.21,5,5.01c0.05-0.04,0.09-0.06,0.14-0.1
		c0.06-0.04,0.09-0.06,0.14-0.1c0.1-0.06,0.2-0.12,0.29-0.18C5.89,4.45,6.22,4.3,6.55,4.17C7.19,3.93,7.86,3.8,8.54,3.78
		c0.15,0,0.32,0,0.47,0c0.14,0,0.34,0.04,0.43,0.04l0.51-1.12c0.14,0.08,0.29,0.16,0.44,0.23c-0.02,0.09-0.06,0.18-0.1,0.26L10,3.94
		c0.36,0.09,0.7,0.24,1.01,0.45c0.29,0.19,0.53,0.44,0.7,0.74c-0.07-0.05-0.12-0.09-0.19-0.14c-0.36-0.23-0.75-0.38-1.17-0.46
		C10.16,4.5,9.97,4.47,9.78,4.46C9.75,4.54,9.72,4.62,9.69,4.71C9.67,4.76,9.65,4.78,9.64,4.83C9.59,4.94,9.54,5.06,9.5,5.17
		c0.49-0.01,0.98,0.06,1.45,0.22c0.2,0.07,0.4,0.15,0.58,0.26c0.17,0.11,0.32,0.23,0.47,0.36l0.1,0.11
		c0.03,0.04,0.06,0.08,0.09,0.12c0.03,0.04,0.06,0.08,0.08,0.13c0.03,0.05,0.05,0.08,0.07,0.13c0.04,0.1,0.08,0.2,0.11,0.31
		C12.57,7.38,12.46,7.97,12.14,8.45z"/>
</g>
</svg>
