<?xml version="1.0" standalone="no"?><!DOCTYPE svg PUBLIC "-//W3C//DTD SVG 1.1//EN" "http://www.w3.org/Graphics/SVG/1.1/DTD/svg11.dtd"><svg t="1731919982942" class="icon" viewBox="0 0 1029 1024" version="1.1" xmlns="http://www.w3.org/2000/svg" p-id="4512" width="20.09765625" height="20" xmlns:xlink="http://www.w3.org/1999/xlink"><path d="M452.205979 477.754339c30.658032-7.664508 33.212868-28.103196 33.212868-56.206393-2.554836-112.412786 0-227.380407 0-342.348029 0-28.103196 0-28.103196-28.103196-17.883852-84.309589 33.212868-166.064342 66.425737-250.373932 102.193441-38.322541 15.329016-76.645081 30.658032-117.522458 48.541885 7.664508 7.664508 12.77418 10.219344 15.329017 15.329016 107.303114 89.419261 214.606227 178.838523 324.464176 265.702948 7.664508-5.109672 12.77418-15.329016 22.993525-15.329016z" fill="#FAB025" p-id="4513"></path><path d="M531.405896 477.754339c7.664508 10.219344 12.77418 0 17.883852-7.664508 81.754753-109.85795 166.064342-217.161063 247.819096-327.019013 7.664508-10.219344 7.664508-17.883852-5.109672-22.993524-91.974097-35.767705-186.503031-74.090245-278.477128-112.412786-15.329016-7.664508-20.438688-2.554836-20.438689 12.77418V447.096307c2.554836 30.658032 28.103196 20.438688 38.322541 30.658032z" fill="#FAE400" p-id="4514"></path><path d="M413.883438 559.509092h-383.225406c53.651557 120.077294 107.303114 235.044915 160.954671 355.122209 10.219344-10.219344 15.329016-20.438688 22.993524-28.103196 76.645081-91.974097 150.735326-186.503031 227.380408-278.477128-12.77418-15.329016-22.993524-30.658032-28.103197-48.541885z" fill="#DF6D9D" p-id="4515"></path><path d="M140.515982 273.367456c-17.883852-15.329016-25.54836-12.77418-33.212868 7.664508-33.212868 81.754753-66.425737 160.95467-102.193442 242.709424-10.219344 20.438688-5.109672 25.54836 17.883852 25.54836h393.44475l7.664508-45.987049c-97.083769-76.645081-191.612703-153.290162-283.5868-229.935243z" fill="#F27256" p-id="4516"></path><path d="M556.954256 608.050977c-10.219344-7.664508-17.883852-5.109672-25.54836 0-10.219344 10.219344-22.993524 10.219344-33.212869 12.77418v355.122209c114.967622-48.541885 224.825571-94.528933 332.128685-143.070818-2.554836-5.109672-2.554836-7.664508-2.554836-7.664508-91.974097-74.090245-181.393359-145.625654-270.81262-217.161063z" fill="#58A0DF" p-id="4517"></path><path d="M434.322126 636.154173c-66.425737 84.309589-132.851474 166.064342-199.277211 247.819096-15.329016 17.883852-10.219344 22.993524 7.664509 30.658032 71.535409 33.212868 143.070818 66.425737 212.051391 99.638606 33.212868 15.329016 33.212868 15.329016 33.212868-20.438688 0-125.186966 0-250.373932 2.554836-373.006062-12.77418 0-25.54836-5.109672-38.32254-12.77418-2.554836 12.77418-12.77418 20.438688-17.883853 28.103196z" fill="#B99FD5" p-id="4518"></path><path d="M631.044501 518.631716c86.864425-58.761229 176.283687-117.522458 263.148112-173.728851 12.77418-7.664508 22.993524-17.883852 30.658033-28.103196-10.219344-28.103196-20.438688-56.206393-35.767705-81.754754-76.645081 43.432213-148.18049 97.083769-224.825571 145.625655-10.219344 7.664508-20.438688 12.77418-35.767705 12.77418l-53.651557 68.980573c-15.329016 17.883852-25.54836 33.212868-12.77418 63.870901 10.219344 22.993524 15.329016 30.658032 38.322541 25.54836 5.109672-17.883852 17.883852-25.54836 30.658032-33.212868z" fill="#8DC125" p-id="4519"></path><path d="M585.057453 559.509092c-20.438688 0-20.438688 12.77418-28.103197 22.993525-7.664508 12.77418 5.109672 17.883852 12.77418 22.993524 28.103196 22.993524 58.761229 45.987049 89.419262 68.980573 20.438688-10.219344 43.432213-5.109672 66.425737-5.109672 51.096721-2.554836 104.748278 0 155.844998 0 17.883852-35.767705 33.212868-71.535409 51.096721-107.303114H817.547532c-79.199917-2.554836-155.844998-2.554836-232.490079-2.554836z" fill="#34BA96" p-id="4520"></path><path d="M858.424909 493.083355c35.767705-25.54836 79.199917-45.987049 109.857949-79.199917-12.77418-33.212868-25.54836-66.425737-43.432212-97.083769 0 20.438688-17.883852 28.103196-30.658033 35.767704-81.754753 56.206393-163.509506 107.303114-245.264259 160.954671-15.329016 10.219344-30.658032 22.993524-48.541885 33.212868h189.057867c15.329016-28.103196 45.987049-35.767705 68.980573-53.651557z" fill="#9FCD36" p-id="4521"></path><path d="M894.192613 352.567373c12.77418-10.219344 30.658032-15.329016 30.658033-35.767704-7.664508 12.77418-17.883852 20.438688-30.658033 28.103196-86.864425 58.761229-176.283687 114.967622-263.148112 173.728851-12.77418 7.664508-25.54836 15.329016-30.658032 28.103196 17.883852-10.219344 33.212868-22.993524 48.541885-33.212868 81.754753-53.651557 163.509506-104.748278 245.264259-160.954671z" fill="#9FCD36" p-id="4522"></path><path d="M889.082941 232.490079c-15.329016-38.322541-33.212868-74.090245-48.541885-114.967621-20.438688 28.103196-38.322541 51.096721-56.206392 74.090245-51.096721 66.425737-99.638605 132.851474-150.735327 199.277211 79.199917-43.432213 148.18049-99.638605 227.380408-145.625654 5.109672-5.109672 15.329016-17.883852 28.103196-12.774181z" fill="#81B917" p-id="4523"></path><path d="M664.25737 378.115734c74.090245-48.541885 145.625654-99.638605 222.270735-145.625655-12.77418-5.109672-22.993524 5.109672-30.658032 10.219345-76.645081 45.987049-148.18049 102.193442-227.380408 145.625654 15.329016 5.109672 25.54836-2.554836 35.767705-10.219344z" fill="#81B917" p-id="4524"></path><path d="M968.282858 413.883438c2.554836 17.883852-12.77418 22.993524-25.54836 30.658033-51.096721 35.767705-104.748278 66.425737-153.290162 102.193441h222.270735c10.219344 0 20.438688 0 12.77418-15.329016-17.883852-38.322541-35.767705-79.199917-56.206393-117.522458z" fill="#ACD642" p-id="4525"></path><path d="M968.282858 413.883438c-30.658032 35.767705-74.090245 53.651557-109.857949 79.199917-22.993524 17.883852-56.206393 25.54836-68.980573 56.206393 48.541885-38.322541 104.748278-66.425737 153.290162-102.193441 12.77418-10.219344 28.103196-15.329016 25.54836-33.212869z" fill="#ACD642" p-id="4526"></path><path d="M659.147698 674.476714c48.541885 40.877377 99.638605 79.199917 148.18049 120.077294 12.77418 10.219344 15.329016 0 17.883852-7.664508 17.883852-40.877377 38.322541-79.199917 56.206393-120.077294-5.109672 5.109672-10.219344 7.664508-17.883852 7.664508-68.980573 0-137.961146 5.109672-204.386883 0z" fill="#42C1A4" p-id="4527"></path><path d="M723.018599 669.367042c-22.993524 0-43.432213-5.109672-66.425737 5.109672 68.980573 5.109672 137.961146 0 204.386883 0 7.664508 0 12.77418-2.554836 17.883852-7.664508-51.096721 0-102.193442 0-155.844998 2.554836z" fill="#42C1A4" p-id="4528"></path><path d="M528.85106 608.050977h-35.767705c-43.432213 0-68.980573-28.103196-68.980573-71.535409 0-25.54836 17.883852-40.877377 25.548361-61.316065-7.664508 5.109672-12.77418 15.329016-22.993525 15.329016l-7.664508 7.664508c2.554836 15.329016 2.554836 33.212868-7.664508 45.987049v10.219344c12.77418 12.77418 22.993524 30.658032 28.103196 48.541885 2.554836 0 5.109672 0 5.109673 2.554836 15.329016-2.554836 25.54836 5.109672 38.32254 12.77418h7.664508c12.77418-10.219344 28.103196-2.554836 38.322541-10.219344z" fill="#A5A6A9" p-id="4529"></path><path d="M452.205979 477.754339c-10.219344 2.554836-15.329016 10.219344-22.993525 15.329016 12.77418 0 15.329016-10.219344 22.993525-15.329016zM413.883438 559.509092c5.109672 17.883852 15.329016 33.212868 28.103197 48.541885-5.109672-20.438688-12.77418-35.767705-28.103197-48.541885zM421.547946 500.747863l-7.664508 45.987049c10.219344-12.77418 10.219344-28.103196 7.664508-45.987049zM528.85106 608.050977c-10.219344 7.664508-25.54836 0-33.212869 12.77418 12.77418-2.554836 25.54836-2.554836 33.212869-12.77418zM449.651143 608.050977c12.77418 7.664508 25.54836 12.77418 38.32254 12.77418-12.77418-7.664508-25.54836-15.329016-38.32254-12.77418z" fill="#A5A6A9" p-id="4530"></path><path d="M544.180076 513.522044c-17.883852-28.103196-45.987049-38.322541-74.090245-22.993525 74.090245 12.77418 89.419261 38.322541 48.541885 102.193442 33.212868-22.993524 43.432213-53.651557 25.54836-79.199917z" fill="#A3A5A7" p-id="4531"></path></svg>