<svg width="64" height="64" viewBox="0 0 64 64" fill="none" xmlns="http://www.w3.org/2000/svg">
<path d="M56.1013 32.598V10.4688H50.9643C50.8066 10.4688 50.6553 10.531 50.5433 10.642L42.2695 18.841L56.1013 32.598Z" fill="#FF9458"/>
<path d="M56.102 32.5981L23.5039 0V32.5981H56.102Z" fill="#FF5D39"/>
<path d="M24.8102 63.7745L56.102 32.5977H23.5039V63.235C23.5039 63.9148 24.3282 64.2552 24.8102 63.7745Z" fill="#E6442E"/>
<path d="M56.1016 16.5919L56.1018 10.4688L62.3805 15.7294C62.73 16.0223 62.5229 16.5919 62.0669 16.5919H56.1016Z" fill="#FB5F39"/>
<path d="M23.5045 0H2.17897C1.58707 0 1.23967 0.66574 1.5782 1.15127L23.5045 32.5981V0Z" fill="#FF9A62"/>
<path d="M23.5032 32.5977L8.46837 47.4945C8.00372 47.9549 8.32974 48.7472 8.98385 48.7472H23.5032V32.5977Z" fill="#FF9A62"/>
</svg>
