<?xml version="1.0" standalone="no"?><!DOCTYPE svg PUBLIC "-//W3C//DTD SVG 1.1//EN" "http://www.w3.org/Graphics/SVG/1.1/DTD/svg11.dtd"><svg t="1731917516114" class="icon" viewBox="0 0 1024 1024" version="1.1" xmlns="http://www.w3.org/2000/svg" p-id="5157" width="20" height="20" xmlns:xlink="http://www.w3.org/1999/xlink"><path d="M418.689057 348.51468767l-3.540253-1.228251c-20.519015-7.008255-32.584774-28.177521-28.105271-49.419036L425.697312 113.77426567c8.597756-40.82128 50.502787-65.314048 90.240316-52.670289 41.61603 13.22176 61.268045 60.762295 41.25478 99.488323L470.709095 327.63442267c-9.753757 18.857264-31.862273 27.74402-52.020038 20.880265zM507.628872 435.64825167l-0.21675-5.852255c-0.867001-21.964016 14.955761-41.03803 36.703027-44.144782l339.358498-49.274536c41.688281-6.069004 80.197559 23.553517 85.038312 65.386298 5.274254 45.156283-30.634022 84.532562-76.151555 83.448811l-342.898752-8.381006c-22.614267-0.50575-40.96578-18.568264-41.83278-41.18253zM689.915755 922.68585767L457.848585 589.68536467c-13.29401-19.074014-8.959007-45.373033 9.826008-59.100544l3.757002-2.745502c17.556763-12.860509 41.977281-10.548508 56.860792 5.346504l276.211952 297.164468c29.550272 31.790023 25.359769 82.00381-8.959006 108.519579-33.379524 25.721019-81.49806 18.351513-105.629578-16.184012zM207.285402 910.25884867c-38.870528-16.184012-56.138291-61.773795-37.570028-99.560573l129.761095-265.085444c9.970507-20.302265 33.885275-29.405772 54.837791-20.880265 19.868765 8.092006 30.634022 29.622522 25.287518 50.430537l-73.550554 285.893459c-11.054258 42.988781-57.727792 66.253299-98.765822 49.202286zM283.725958 454.07201467l-156.349115 2.456502c-39.231779 0.578-69.865801-33.885275-64.591547-72.755803 5.129754-37.859028 42.049531-62.857546 79.113808-53.60954l151.725111 37.931278c20.880265 5.202004 34.680025 25.070768 32.223524 46.456784l-0.1445 1.445001c-2.384252 21.458266-20.374515 37.786778-41.977281 38.075778z" fill="#FF2851" p-id="5158"></path></svg>